<?xml version="1.0" encoding="UTF-8" standalone="no"?>
<!-- Created with Inkscape (http://www.inkscape.org/) -->

<svg
   xmlns:dc="http://purl.org/dc/elements/1.1/"
   xmlns:cc="http://creativecommons.org/ns#"
   xmlns:rdf="http://www.w3.org/1999/02/22-rdf-syntax-ns#"
   xmlns:svg="http://www.w3.org/2000/svg"
   xmlns="http://www.w3.org/2000/svg"
   xmlns:xlink="http://www.w3.org/1999/xlink"
   xmlns:sodipodi="http://sodipodi.sourceforge.net/DTD/sodipodi-0.dtd"
   xmlns:inkscape="http://www.inkscape.org/namespaces/inkscape"
   width="128"
   height="128"
   id="svg2"
   version="1.1"
   inkscape:version="0.48.2 r9819"
   sodipodi:docname="folder-icon-bigger.svg"
   inkscape:export-filename="/home/davidben/proj/embedded-emacs/chrome/icon-128.png"
   inkscape:export-xdpi="90"
   inkscape:export-ydpi="90">
  <defs
     id="defs4">
    <linearGradient
       id="linearGradient3929">
      <stop
         style="stop-color:#000000;stop-opacity:1;"
         offset="0"
         id="stop3931" />
      <stop
         style="stop-color:#000000;stop-opacity:0;"
         offset="1"
         id="stop3933" />
    </linearGradient>
    <linearGradient
       id="linearGradient4616">
      <stop
         style="stop-color:#261f56;stop-opacity:1;"
         offset="0"
         id="stop4618" />
      <stop
         style="stop-color:#777dc0;stop-opacity:1;"
         offset="1"
         id="stop4620" />
    </linearGradient>
    <linearGradient
       id="linearGradient4516">
      <stop
         style="stop-color:#8a87cf;stop-opacity:1;"
         offset="0"
         id="stop4518" />
      <stop
         id="stop4524"
         offset="0.5"
         style="stop-color:#7774be;stop-opacity:1;" />
      <stop
         style="stop-color:#544fbb;stop-opacity:1;"
         offset="1"
         id="stop4520" />
    </linearGradient>
    <linearGradient
       id="linearGradient3284">
      <stop
         id="stop3286"
         style="stop-color:#000000;stop-opacity:1"
         offset="0" />
      <stop
         id="stop3292"
         style="stop-color:#000000;stop-opacity:0.49803922"
         offset="0.84845906" />
      <stop
         id="stop3288"
         style="stop-color:#000000;stop-opacity:0"
         offset="1" />
    </linearGradient>
    <linearGradient
       id="linearGradient3294">
      <stop
         id="stop3296"
         style="stop-color:#6376e6;stop-opacity:1"
         offset="0" />
      <stop
         id="stop3302"
         style="stop-color:#222989;stop-opacity:1"
         offset="0.50094414" />
      <stop
         id="stop3298"
         style="stop-color:#00003d;stop-opacity:1"
         offset="1" />
    </linearGradient>
    <linearGradient
       id="linearGradient3202">
      <stop
         id="stop3204"
         style="stop-color:#2b2b2b;stop-opacity:1"
         offset="0" />
      <stop
         id="stop3250"
         style="stop-color:#828383;stop-opacity:1"
         offset="0.5" />
      <stop
         id="stop3206"
         style="stop-color:#dadbdb;stop-opacity:1"
         offset="1" />
    </linearGradient>
    <linearGradient
       id="linearGradient3566">
      <stop
         id="stop3568"
         style="stop-color:#2b2b2b;stop-opacity:1"
         offset="0" />
      <stop
         id="stop3570"
         style="stop-color:#828383;stop-opacity:1"
         offset="0.5" />
      <stop
         id="stop3572"
         style="stop-color:#dadbdb;stop-opacity:1"
         offset="1" />
    </linearGradient>
    <radialGradient
       inkscape:collect="always"
       xlink:href="#linearGradient3242"
       id="radialGradient5241"
       gradientUnits="userSpaceOnUse"
       gradientTransform="matrix(-0.00614672,-0.00559891,0.15816585,-0.17364098,362.17853,225.8923)"
       cx="418.45551"
       cy="181.18982"
       fx="418.45551"
       fy="181.18982"
       r="63.068935" />
    <linearGradient
       id="linearGradient3242">
      <stop
         id="stop3244"
         style="stop-color:#282828;stop-opacity:1"
         offset="0" />
      <stop
         id="stop3252"
         style="stop-color:#808080;stop-opacity:1"
         offset="0.39253417" />
      <stop
         id="stop3246"
         style="stop-color:#d9d9d9;stop-opacity:1"
         offset="1" />
    </linearGradient>
    <radialGradient
       inkscape:collect="always"
       xlink:href="#linearGradient3284-1"
       id="radialGradient5233-9"
       gradientUnits="userSpaceOnUse"
       gradientTransform="matrix(-0.11716471,0.12935911,-0.00902714,-0.00684136,409.28555,168.60117)"
       cx="284.4671"
       cy="-158.17821"
       fx="284.4671"
       fy="-158.17821"
       r="110.2972" />
    <linearGradient
       id="linearGradient3284-1">
      <stop
         id="stop3286-9"
         style="stop-color:#000000;stop-opacity:1"
         offset="0" />
      <stop
         id="stop3292-9"
         style="stop-color:#000000;stop-opacity:0.49803922"
         offset="0.84845906" />
      <stop
         id="stop3288-4"
         style="stop-color:#000000;stop-opacity:0"
         offset="1" />
    </linearGradient>
    <radialGradient
       inkscape:collect="always"
       xlink:href="#linearGradient3294-0"
       id="radialGradient5235-9"
       gradientUnits="userSpaceOnUse"
       gradientTransform="matrix(-0.00945155,-0.00758178,0.10073727,-0.12558049,347.35999,248.79337)"
       cx="425.51019"
       cy="356.62274"
       fx="425.51019"
       fy="356.62274"
       r="143.34167" />
    <linearGradient
       id="linearGradient3294-0">
      <stop
         id="stop3296-5"
         style="stop-color:#6376e6;stop-opacity:1"
         offset="0" />
      <stop
         id="stop3302-1"
         style="stop-color:#222989;stop-opacity:1"
         offset="0.50094414" />
      <stop
         id="stop3298-1"
         style="stop-color:#00003d;stop-opacity:1"
         offset="1" />
    </linearGradient>
    <radialGradient
       inkscape:collect="always"
       xlink:href="#linearGradient3202-8"
       id="radialGradient5237-7"
       gradientUnits="userSpaceOnUse"
       gradientTransform="matrix(0.03887859,0.03094289,-0.04742816,0.05959176,378.58904,179.85775)"
       cx="289.44067"
       cy="390.45248"
       fx="289.44067"
       fy="390.45248"
       r="17.67668" />
    <linearGradient
       id="linearGradient3202-8">
      <stop
         id="stop3204-2"
         style="stop-color:#2b2b2b;stop-opacity:1"
         offset="0" />
      <stop
         id="stop3250-8"
         style="stop-color:#828383;stop-opacity:1"
         offset="0.5" />
      <stop
         id="stop3206-6"
         style="stop-color:#dadbdb;stop-opacity:1"
         offset="1" />
    </linearGradient>
    <radialGradient
       inkscape:collect="always"
       xlink:href="#linearGradient3202-8"
       id="radialGradient5239-8"
       gradientUnits="userSpaceOnUse"
       gradientTransform="matrix(0.03887859,0.03094289,-0.04742816,0.05959176,388.10063,169.08797)"
       cx="283.50717"
       cy="382.14804"
       fx="283.50717"
       fy="382.14804"
       r="17.67668" />
    <linearGradient
       id="linearGradient3566-0">
      <stop
         id="stop3568-5"
         style="stop-color:#2b2b2b;stop-opacity:1"
         offset="0" />
      <stop
         id="stop3570-8"
         style="stop-color:#828383;stop-opacity:1"
         offset="0.5" />
      <stop
         id="stop3572-4"
         style="stop-color:#dadbdb;stop-opacity:1"
         offset="1" />
    </linearGradient>
    <radialGradient
       inkscape:collect="always"
       xlink:href="#linearGradient3242-5"
       id="radialGradient5241-1"
       gradientUnits="userSpaceOnUse"
       gradientTransform="matrix(-0.00614672,-0.00559891,0.15816585,-0.17364098,362.17853,225.8923)"
       cx="418.45551"
       cy="181.18982"
       fx="418.45551"
       fy="181.18982"
       r="63.068935" />
    <linearGradient
       id="linearGradient3242-5">
      <stop
         id="stop3244-1"
         style="stop-color:#282828;stop-opacity:1"
         offset="0" />
      <stop
         id="stop3252-1"
         style="stop-color:#808080;stop-opacity:1"
         offset="0.39253417" />
      <stop
         id="stop3246-0"
         style="stop-color:#d9d9d9;stop-opacity:1"
         offset="1" />
    </linearGradient>
    <radialGradient
       r="63.068935"
       fy="181.18982"
       fx="418.45551"
       cy="181.18982"
       cx="418.45551"
       gradientTransform="matrix(-0.00614672,-0.00559891,0.15816585,-0.17364098,362.17853,225.8923)"
       gradientUnits="userSpaceOnUse"
       id="radialGradient3587-9"
       xlink:href="#linearGradient3242-5"
       inkscape:collect="always" />
    <filter
       inkscape:collect="always"
       id="filter4532">
      <feGaussianBlur
         inkscape:collect="always"
         stdDeviation="2.6556659"
         id="feGaussianBlur4534" />
    </filter>
    <radialGradient
       inkscape:collect="always"
       xlink:href="#linearGradient4516"
       id="radialGradient4572"
       gradientUnits="userSpaceOnUse"
       gradientTransform="matrix(1.4885501,-0.0596374,0.03333261,0.83198227,-22.155315,893.08297)"
       cx="44.650635"
       cy="51.019527"
       fx="44.650635"
       fy="51.019527"
       r="55" />
    <mask
       maskUnits="userSpaceOnUse"
       id="mask4604">
      <path
         style="fill:#ffffff;fill-opacity:1;stroke:none;filter:url(#filter4532)"
         d="m 25.875,902.64343 c -2.223347,0 -4.432903,10.76442 -6.65625,11.4375 l -6.21875,0 c -2.216,0 -4,1.784 -4,4 l 0,59.99997 c 0,2.216 1.784,4 4,4 l 102,0 c 2.216,0 4,-1.784 4,-4 l 0,-59.99997 c 0,-2.216 -1.784,-4 -4,-4 l -46.5,0 c -2.223347,-0.67308 -4.432903,-11.4375 -6.65625,-11.4375 l -35.96875,0 z"
         id="path4606"
         inkscape:connector-curvature="0" />
    </mask>
    <linearGradient
       inkscape:collect="always"
       xlink:href="#linearGradient4616"
       id="linearGradient4622"
       x1="46.978882"
       y1="102.97832"
       x2="46.040573"
       y2="25.521399"
       gradientUnits="userSpaceOnUse"
       gradientTransform="matrix(1.0292717,0,0,1.0292717,-1.8733923,922.12389)" />
    <filter
       inkscape:collect="always"
       id="filter4686">
      <feGaussianBlur
         inkscape:collect="always"
         stdDeviation="1.1641743"
         id="feGaussianBlur4688" />
    </filter>
    <mask
       maskUnits="userSpaceOnUse"
       id="mask4698">
      <path
         style="fill:#ffffff;fill-opacity:1;fill-rule:evenodd;stroke:#000000;stroke-width:0;stroke-linecap:butt;stroke-linejoin:miter;stroke-miterlimit:4;stroke-opacity:1;stroke-dasharray:none;display:inline;filter:url(#filter4686)"
         id="path4700"
         d="m 48.383764,1016.7702 c 0,0 3.067224,0.8906 7.150075,1.3998 1.653424,0.2061 7.944486,0.9268 12.767946,0.9079 0,0 5.874544,0.01 9.11726,-0.4539 3.392978,-0.482 5.315242,-1.0971 6.385048,-2.3247 0.02789,-0.2927 0.516367,-1.2467 -0.802518,-2.1667 -3.371845,-2.3523 -7.730896,-2.9961 -16.197831,-5.0069 -9.362793,-2.354 -12.160854,-4.6081 -13.558699,-6.2394 -1.325251,-1.6349 0.248764,-5.03046 7.793184,-6.69618 3.81981,-0.92954 18.046492,-1.10037 18.046492,-1.10037 -4.081558,-3.24052 -11.74421,-9.0421 -13.310495,-10.27588 -1.373694,-1.08209 -3.587373,-2.74265 -3.825318,-4.22658 -0.32101,-1.44453 1.952789,-2.14005 3.15657,-2.2203 3.87882,-0.26749 9.175419,0.18726 13.883531,1.12352 2.366533,0.47062 2.782042,0.40125 2.782042,0.40125 3.370561,0.16052 5.99213,-1.60502 5.858376,-5.32335 -0.02687,-3.77181 -3.797905,-6.79628 -7.97167,-6.92839 -3.930446,-0.12443 -13.616022,0.56177 -13.616022,0.56177 11.288721,2.3273 13.134184,2.92121 13.723026,4.28008 0.347761,0.80251 -0.580908,1.60043 -3.691572,1.44453 -3.386541,-0.16972 -10.325698,-0.98977 -10.325698,-0.98977 -6.607384,-1.01653 -11.208484,-1.97954 -13.214759,0.64203 -1.310745,1.71269 0.187232,3.79857 0.775751,5.02909 2.621561,4.57435 7.154756,7.71269 10.031454,9.92444 1.082374,0.8322 4.387086,2.67502 4.387086,2.67502 -10.272196,-2.80877 -18.457873,-1.23046 -23.647469,1.49805 -5.965366,3.53111 -4.944944,9.48994 4.520841,15.06064 5.590851,3.2903 8.374571,4.871 17.52855,5.9948 5.350629,0.8531 6.147923,1.2023 6.107249,1.6476 -0.05728,0.6271 -6.333004,0.8646 -8.057997,0.9836 -4.388386,0.3027 -15.737685,0.3783 -15.794433,0.3783 z"
         inkscape:connector-curvature="0" />
    </mask>
    <radialGradient
       inkscape:collect="always"
       xlink:href="#linearGradient4516"
       id="radialGradient3935"
       cx="-191.25"
       cy="33"
       fx="-191.25"
       fy="33"
       r="31.75"
       gradientTransform="matrix(1,0,0,0.96062992,0,1.2992126)"
       gradientUnits="userSpaceOnUse" />
    <filter
       inkscape:collect="always"
       id="filter3908">
      <feGaussianBlur
         inkscape:collect="always"
         stdDeviation="1.0289906"
         id="feGaussianBlur3910" />
    </filter>
  </defs>
  <sodipodi:namedview
     id="base"
     pagecolor="#ffffff"
     bordercolor="#666666"
     borderopacity="1.0"
     inkscape:pageopacity="0.0"
     inkscape:pageshadow="2"
     inkscape:zoom="2"
     inkscape:cx="37.188932"
     inkscape:cy="65.00387"
     inkscape:document-units="px"
     inkscape:current-layer="layer1"
     showgrid="false"
     inkscape:window-width="1280"
     inkscape:window-height="727"
     inkscape:window-x="0"
     inkscape:window-y="24"
     inkscape:window-maximized="1"
     showguides="true"
     inkscape:guide-bbox="true"
     inkscape:snap-global="false">
    <inkscape:grid
       type="xygrid"
       id="grid2985"
       empspacing="5"
       visible="true"
       enabled="true"
       snapvisiblegridlinesonly="true" />
    <sodipodi:guide
       position="7,16"
       orientation="0,128"
       id="guide3933" />
    <sodipodi:guide
       position="112,-6"
       orientation="-128,0"
       id="guide3935" />
    <sodipodi:guide
       position="16,112"
       orientation="0,-128"
       id="guide3937" />
    <sodipodi:guide
       position="16,131"
       orientation="128,0"
       id="guide3939" />
  </sodipodi:namedview>
  <metadata
     id="metadata7">
    <rdf:RDF>
      <cc:Work
         rdf:about="">
        <dc:format>image/svg+xml</dc:format>
        <dc:type
           rdf:resource="http://purl.org/dc/dcmitype/StillImage" />
        <dc:title />
      </cc:Work>
    </rdf:RDF>
  </metadata>
  <g
     inkscape:label="Layer 1"
     inkscape:groupmode="layer"
     id="layer1"
     transform="translate(0,-924.36218)">
    <path
       style="fill:url(#linearGradient4622);fill-opacity:1;stroke:none"
       d="m 24.759016,947.11589 c -2.288427,0 -4.562661,11.0795 -6.851089,11.7723 l -6.400786,0 c -2.2808657,0 -4.1170866,1.83621 -4.1170866,4.11709 l 0,61.75632 c 0,2.2808 1.8362209,4.1171 4.1170866,4.1171 l 104.985719,0 c 2.28086,0 4.11709,-1.8363 4.11709,-4.1171 l 0,-61.75632 c 0,-2.28088 -1.83623,-4.11709 -4.11709,-4.11709 l -47.861133,0 c -2.288428,-0.6928 -4.562661,-11.7723 -6.851091,-11.7723 l -37.02162,0 z"
       id="rect2987"
       inkscape:connector-curvature="0" />
    <rect
       style="fill:#c4a000;fill-opacity:1;stroke:none"
       id="rect3011-4"
       width="15.000004"
       height="9.2727299"
       x="952.36218"
       y="5.7272701"
       transform="matrix(0,1,-1,0,0,0)" />
    <path
       id="path4570"
       d="m 25.875,902.64343 c -2.223347,0 -4.432903,10.76442 -6.65625,11.4375 l -6.21875,0 c -2.216,0 -4,1.784 -4,4 l 0,59.99997 c 0,2.216 1.784,4 4,4 l 102,0 c 2.216,0 4,-1.784 4,-4 l 0,-59.99997 c 0,-2.216 -1.784,-4 -4,-4 l -46.5,0 c -2.223347,-0.67308 -4.432903,-11.4375 -6.65625,-11.4375 l -35.96875,0 z"
       style="fill:url(#radialGradient4572);fill-opacity:1;stroke:none"
       inkscape:connector-curvature="0"
       mask="url(#mask4604)"
       transform="matrix(1.0292717,0,0,1.0292717,-1.8733923,18.073179)" />
    <path
       inkscape:connector-curvature="0"
       d="m 48.22302,1018.7611 c 0,0 3.197,0.9283 7.4526,1.4591 1.72339,0.2148 8.28063,0.966 13.30818,0.9463 0,0 6.1231,0.01 9.50302,-0.4731 3.53654,-0.5024 5.54014,-1.1436 6.65521,-2.4231 0.0291,-0.3051 0.53822,-1.2994 -0.83647,-2.2584 -3.51451,-2.4518 -8.058,-3.1228 -16.88319,-5.2187 -9.75894,-2.4536 -12.67539,-4.8031 -14.13238,-6.5034 -1.38133,-1.7041 0.25929,-5.2433 8.12292,-6.9795 3.98143,-0.9689 18.81007,-1.1469 18.81007,-1.1469 -4.25426,-3.3777 -12.24113,-9.4247 -13.87368,-10.7107 -1.43182,-1.1279 -3.73916,-2.8587 -3.98718,-4.4054 -0.33459,-1.5057 2.03542,-2.2306 3.29013,-2.3143 4.04294,-0.2788 9.56365,0.1952 14.47096,1.1711 2.46667,0.4905 2.89976,0.4182 2.89976,0.4182 3.51317,0.1673 6.24566,-1.6729 6.10625,-5.5486 -0.028,-3.9314 -3.9586,-7.0838 -8.30896,-7.2215 -4.09675,-0.1297 -14.19214,0.5855 -14.19214,0.5855 11.76637,2.4258 13.68991,3.0448 14.30367,4.4612 0.36247,0.8365 -0.60549,1.6681 -3.84777,1.5057 -3.52983,-0.1769 -10.76259,-1.0317 -10.76259,-1.0317 -6.88695,-1.0595 -11.68273,-2.0633 -13.77389,0.6692 -1.36621,1.7852 0.19515,3.9593 0.80857,5.2419 2.73248,4.7679 7.45748,8.039 10.4559,10.3443 1.12817,0.8674 4.57271,2.7882 4.57271,2.7882 -10.70683,-2.9276 -19.23885,-1.2825 -24.64803,1.5615 -6.21777,3.6805 -5.15417,9.8914 4.71213,15.6978 5.8274,3.4296 8.72891,5.0771 18.2702,6.2485 5.57702,0.8892 6.40805,1.2532 6.36566,1.7173 -0.0597,0.6536 -6.60096,0.9012 -8.39894,1.0252 -4.57407,0.3155 -16.40357,0.3943 -16.46272,0.3943 z"
       id="path3912"
       style="opacity:0.22380952;fill:#ffffff;fill-opacity:1;fill-rule:evenodd;stroke:#000000;stroke-width:0;stroke-linecap:butt;stroke-linejoin:miter;stroke-miterlimit:4;stroke-opacity:1;stroke-dasharray:none;display:inline;filter:url(#filter3908)"
       mask="none"
       transform="matrix(1.0292717,0,0,1.0292717,-1.8733923,-29.296047)" />
    <path
       mask="none"
       style="opacity:0.31603777;fill:#000000;fill-opacity:1;fill-rule:evenodd;stroke:#000000;stroke-width:0;stroke-linecap:butt;stroke-linejoin:miter;stroke-miterlimit:4;stroke-opacity:1;stroke-dasharray:none;display:inline;filter:url(#filter3908)"
       id="path3068"
       d="m 46.22302,1016.7611 c 0,0 3.197,0.9283 7.4526,1.4591 1.72339,0.2148 8.28063,0.966 13.30818,0.9463 0,0 6.1231,0.01 9.50302,-0.4731 3.53654,-0.5024 5.54014,-1.1436 6.65521,-2.4231 0.0291,-0.3051 0.53822,-1.2994 -0.83647,-2.2584 -3.51451,-2.4518 -8.058,-3.1228 -16.88319,-5.2187 -9.75894,-2.4536 -12.67539,-4.8031 -14.13238,-6.5034 -1.38133,-1.7041 0.25929,-5.2433 8.12292,-6.9795 3.98143,-0.9689 18.81007,-1.1469 18.81007,-1.1469 -4.25426,-3.3777 -12.24113,-9.4247 -13.87368,-10.7107 -1.43182,-1.1279 -3.73916,-2.8587 -3.98718,-4.4054 -0.33459,-1.5057 2.03542,-2.2306 3.29013,-2.3143 4.04294,-0.2788 9.56365,0.1952 14.47096,1.1711 2.46667,0.4905 2.89976,0.4182 2.89976,0.4182 3.51317,0.1673 6.24566,-1.6729 6.10625,-5.5486 -0.028,-3.9314 -3.9586,-7.0838 -8.30896,-7.2215 -4.09675,-0.1297 -14.19214,0.5855 -14.19214,0.5855 11.76637,2.4258 13.68991,3.0448 14.30367,4.4612 0.36247,0.8365 -0.60549,1.6681 -3.84777,1.5057 -3.52983,-0.1769 -10.76259,-1.0317 -10.76259,-1.0317 -6.88695,-1.0595 -11.68273,-2.0633 -13.77389,0.6692 -1.36621,1.7852 0.19515,3.9593 0.80857,5.2419 2.73248,4.7679 7.45748,8.039 10.4559,10.3443 1.12817,0.8674 4.57271,2.7882 4.57271,2.7882 -10.70683,-2.9276 -19.23885,-1.2825 -24.64803,1.5615 -6.21777,3.6805 -5.15417,9.8914 4.71213,15.6978 5.8274,3.4296 8.72891,5.0771 18.2702,6.2485 5.57702,0.8892 6.40805,1.2532 6.36566,1.7173 -0.0597,0.6536 -6.60096,0.9012 -8.39894,1.0252 -4.57407,0.3155 -16.40357,0.3943 -16.46272,0.3943 z"
       inkscape:connector-curvature="0"
       transform="matrix(1.0292717,0,0,1.0292717,-1.8733923,-29.296047)" />
    <path
       inkscape:connector-curvature="0"
       d="m 48.383764,1016.7702 c 0,0 3.067224,0.8906 7.150075,1.3998 1.653424,0.2061 7.944486,0.9268 12.767946,0.9079 0,0 5.874544,0.01 9.11726,-0.4539 3.392978,-0.482 5.315242,-1.0971 6.385048,-2.3247 0.02789,-0.2927 0.516367,-1.2467 -0.802518,-2.1667 -3.371845,-2.3523 -7.730896,-2.9961 -16.197831,-5.0069 -9.362793,-2.354 -12.160854,-4.6081 -13.558699,-6.2394 -1.325251,-1.6349 0.248764,-5.03046 7.793184,-6.69618 3.81981,-0.92954 18.046492,-1.10037 18.046492,-1.10037 -4.081558,-3.24052 -11.74421,-9.0421 -13.310495,-10.27588 -1.373694,-1.08209 -3.587373,-2.74265 -3.825318,-4.22658 -0.32101,-1.44453 1.952789,-2.14005 3.15657,-2.2203 3.87882,-0.26749 9.175419,0.18726 13.883531,1.12352 2.366533,0.47062 2.782042,0.40125 2.782042,0.40125 3.370561,0.16052 5.99213,-1.60502 5.858376,-5.32335 -0.02687,-3.77181 -3.797905,-6.79628 -7.97167,-6.92839 -3.930446,-0.12443 -13.616022,0.56177 -13.616022,0.56177 11.288721,2.3273 13.134184,2.92121 13.723026,4.28008 0.347761,0.80251 -0.580908,1.60043 -3.691572,1.44453 -3.386541,-0.16972 -10.325698,-0.98977 -10.325698,-0.98977 -6.607384,-1.01653 -11.208484,-1.97954 -13.214759,0.64203 -1.310745,1.71269 0.187232,3.79857 0.775751,5.02909 2.621561,4.57435 7.154756,7.71269 10.031454,9.92444 1.082374,0.8322 4.387086,2.67502 4.387086,2.67502 -10.272196,-2.80877 -18.457873,-1.23046 -23.647469,1.49805 -5.965366,3.53111 -4.944944,9.48994 4.520841,15.06064 5.590851,3.2903 8.374571,4.871 17.52855,5.9948 5.350629,0.8531 6.147923,1.2023 6.107249,1.6476 -0.05728,0.6271 -6.333004,0.8646 -8.057997,0.9836 -4.388386,0.3027 -15.737685,0.3783 -15.794433,0.3783 z"
       id="path4839"
       style="fill:#ffffff;fill-opacity:1;fill-rule:evenodd;stroke:#000000;stroke-width:0;stroke-linecap:butt;stroke-linejoin:miter;stroke-miterlimit:4;stroke-opacity:1;stroke-dasharray:none;display:inline"
       mask="url(#mask4698)"
       transform="matrix(1.0728216,0,0,1.0728216,-4.6605847,-72.556376)" />
    <g
       style="display:inline"
       id="g5224"
       transform="matrix(2.2441592,0,0,2.2441592,-887.79893,552.68385)">
      <g
         id="g4820"
         transform="matrix(0.09375,0,0,0.09375,346.06218,175.21904)">
        <path
           style="fill:#4d4d4d"
           id="path4824"
           d="m 279.476,404.243 c -0.007,-0.004 -7.446,-4.112 -16.804,-11.401 l 0,0 c -8.082,-6.285 -13.538,-12.214 -13.544,-12.22 l 0,0 -0.122,-0.133 3.646,-4.669 0.157,-0.205 0.169,0.197 c 0.017,0.01 5.4,6.295 13.725,12.78 l 0,0 c 7.913,6.157 16.594,10.586 16.612,10.595 l 0,0 0.229,0.117 -3.911,5.026 -0.157,-0.087 0,0 z m -16.542,-11.737 c 8.545,6.656 15.469,10.644 16.589,11.275 l 0,0 3.372,-4.334 c -1.423,-0.743 -9.253,-4.919 -16.453,-10.521 l 0,0 c -7.504,-5.845 -12.637,-11.533 -13.614,-12.645 l 0,0 -3.264,4.184 c 0.849,0.905 6.01,6.32 13.37,12.041 l 0,0 z"
           inkscape:connector-curvature="0" />
      </g>
      <rect
         style="fill:url(#radialGradient5233-9);fill-opacity:1;stroke:#4a4a4a;stroke-width:0;stroke-miterlimit:4;stroke-opacity:1;stroke-dasharray:none"
         id="rect3282"
         y="185.72401"
         x="358.23929"
         height="36.551983"
         width="35.521378" />
      <path
         style="fill:url(#radialGradient5235-9);fill-opacity:1;fill-rule:evenodd;stroke:#000030;stroke-width:0.02088755;stroke-linecap:butt;stroke-linejoin:miter;stroke-miterlimit:4;stroke-opacity:1;stroke-dasharray:none"
         id="path3254"
         d="m 372.25774,212.94678 c 0,0 4.99001,-5.35345 9.87433,-11.24846 l 0.21335,0.0659 c 0,0 10.12955,-11.10121 7.65182,-11.99999 0,0 -1.23887,-2.45345 -10.95547,9.35222 l -0.0187,0.17716 c -4.48311,5.17018 -9.46435,11.47403 -9.46435,11.47403 -3.84757,5.53089 -6.13207,9.61894 -5.94313,10.014 0.25683,0.53701 8.65705,-7.78103 8.64214,-7.83483 z"
         inkscape:connector-curvature="0" />
      <path
         style="fill:url(#radialGradient5237-7);fill-opacity:1;fill-rule:evenodd;stroke:#606060;stroke-width:0.02088755;stroke-linecap:butt;stroke-linejoin:miter;stroke-miterlimit:4;stroke-opacity:1;stroke-dasharray:none"
         id="path2430"
         d="m 369.39556,210.87067 c 1.09072,1.11649 2.8685,2.25015 2.8685,2.25015 l 0.35213,-0.44659 c -1.20639,-0.63048 -2.88569,-2.23297 -2.88569,-2.23297 l -0.33494,0.42941 z"
         inkscape:connector-curvature="0" />
      <path
         style="fill:url(#radialGradient5239-8);fill-opacity:1;fill-rule:evenodd;stroke:#606060;stroke-width:0.02088755;stroke-linecap:butt;stroke-linejoin:miter;stroke-miterlimit:4;stroke-opacity:1;stroke-dasharray:none"
         id="path3236"
         d="m 378.82985,199.25923 c 1.92379,1.22814 3.43534,2.71392 3.43534,2.71392 l 0.25765,-0.30059 c -1.02603,-1.08566 -3.43933,-2.72815 -3.43933,-2.72815 l -0.25366,0.31482 z"
         inkscape:connector-curvature="0" />
      <path
         style="fill:url(#radialGradient3587-9);fill-opacity:1;fill-rule:evenodd;stroke:#4a4a4a;stroke-width:0.02506506;stroke-linecap:butt;stroke-linejoin:miter;stroke-miterlimit:4;stroke-opacity:1;stroke-dasharray:none"
         id="path3240"
         d="m 389.39781,189.45135 c 1.01342,0.0859 1.18519,0.97907 1.18519,0.97907 -4.62053,4.80947 -11.38814,11.80038 -11.38814,11.80038 l -0.34354,-0.292 c 5.96031,-7.1455 10.54649,-12.48745 10.54649,-12.48745"
         inkscape:connector-curvature="0" />
    </g>
    <path
       sodipodi:nodetypes="ccccc"
       inkscape:connector-curvature="0"
       id="path3735"
       d="m 161.75618,1016.288 c 2.29507,0 4.59014,-11.4753 6.88521,-11.4753 l 35.95607,0 c 2.29507,0 4.59014,11.4753 6.8852,11.4753 1.06007,20.7863 -49.37312,17.4895 -49.72648,0 z"
       style="fill:#6e69d3;fill-opacity:1;stroke:none" />
    <rect
       rx="4"
       ry="4"
       y="1016.2791"
       x="151.75618"
       height="68"
       width="110"
       id="rect3737"
       style="fill:#6e69d3;fill-opacity:1;stroke:none" />
  </g>
</svg>
