<?xml version="1.0" encoding="UTF-8" standalone="no"?>
<!-- Created with Inkscape (http://www.inkscape.org/) -->

<svg
   xmlns:dc="http://purl.org/dc/elements/1.1/"
   xmlns:cc="http://creativecommons.org/ns#"
   xmlns:rdf="http://www.w3.org/1999/02/22-rdf-syntax-ns#"
   xmlns:svg="http://www.w3.org/2000/svg"
   xmlns="http://www.w3.org/2000/svg"
   xmlns:xlink="http://www.w3.org/1999/xlink"
   xmlns:sodipodi="http://sodipodi.sourceforge.net/DTD/sodipodi-0.dtd"
   xmlns:inkscape="http://www.inkscape.org/namespaces/inkscape"
   version="1.1"
   width="256"
   height="256"
   id="svg3039"
   inkscape:version="0.48.0 r9654"
   sodipodi:docname="icon-2.svg">
  <sodipodi:namedview
     pagecolor="#ffffff"
     bordercolor="#666666"
     borderopacity="1"
     objecttolerance="10"
     gridtolerance="10"
     guidetolerance="10"
     inkscape:pageopacity="0"
     inkscape:pageshadow="2"
     inkscape:window-width="1280"
     inkscape:window-height="727"
     id="namedview6"
     showgrid="true"
     inkscape:zoom="1"
     inkscape:cx="147.74846"
     inkscape:cy="90.14111"
     inkscape:window-x="0"
     inkscape:window-y="24"
     inkscape:window-maximized="1"
     inkscape:current-layer="layer2" />
  <metadata
     id="metadata3045">
    <rdf:RDF>
      <cc:Work
         rdf:about="">
        <dc:format>image/svg+xml</dc:format>
        <dc:type
           rdf:resource="http://purl.org/dc/dcmitype/StillImage" />
        <dc:title></dc:title>
        <cc:license
           rdf:resource="" />
      </cc:Work>
    </rdf:RDF>
  </metadata>
  <defs
     id="defs3043">
    <linearGradient
       id="linearGradient3803">
      <stop
         style="stop-color:#cdcbec;stop-opacity:1;"
         offset="0"
         id="stop3805" />
      <stop
         id="stop3811"
         offset="0.5"
         style="stop-color:#ffffff;stop-opacity:1" />
      <stop
         style="stop-color:#d6d5f0;stop-opacity:1;"
         offset="1"
         id="stop3807" />
    </linearGradient>
    <linearGradient
       id="linearGradient3776">
      <stop
         id="stop3778"
         offset="0"
         style="stop-color:#b5b2e9;stop-opacity:1;" />
      <stop
         id="stop3780"
         offset="1"
         style="stop-color:#c6c4ee;stop-opacity:1;" />
    </linearGradient>
    <linearGradient
       id="linearGradient3750">
      <stop
         id="stop3752"
         offset="0"
         style="stop-color:#d2d0f1;stop-opacity:1;" />
      <stop
         style="stop-color:#cccaf0;stop-opacity:1;"
         offset="0.85580856"
         id="stop3756" />
      <stop
         id="stop3754"
         offset="1"
         style="stop-color:#9995e3;stop-opacity:1;" />
    </linearGradient>
    <linearGradient
       id="linearGradient3708">
      <stop
         style="stop-color:#6965b6;stop-opacity:1;"
         offset="0"
         id="stop3710" />
      <stop
         id="stop3716"
         offset="0.76777935"
         style="stop-color:#5652ab;stop-opacity:1;" />
      <stop
         style="stop-color:#4540a0;stop-opacity:1;"
         offset="1"
         id="stop3712" />
    </linearGradient>
    <linearGradient
       id="linearGradient3698">
      <stop
         style="stop-color:#9996e1;stop-opacity:1;"
         offset="0"
         id="stop3700" />
      <stop
         id="stop3706"
         offset="0.67819428"
         style="stop-color:#8d89e1;stop-opacity:1;" />
      <stop
         style="stop-color:#6e69d3;stop-opacity:1;"
         offset="1"
         id="stop3702" />
    </linearGradient>
    <linearGradient
       id="linearGradient3647">
      <stop
         style="stop-color:#413bbc;stop-opacity:1;"
         offset="0"
         id="stop3649" />
      <stop
         style="stop-color:#9894e0;stop-opacity:1;"
         offset="1"
         id="stop3651" />
    </linearGradient>
    <linearGradient
       inkscape:collect="always"
       id="linearGradient3588">
      <stop
         style="stop-color:#ffffff;stop-opacity:1"
         offset="0"
         id="stop3590" />
      <stop
         style="stop-color:#000000;stop-opacity:0;"
         offset="1"
         id="stop3592" />
    </linearGradient>
    <radialGradient
       inkscape:collect="always"
       xlink:href="#linearGradient3588"
       id="radialGradient3594"
       cx="-118.77966"
       cy="121.49152"
       fx="-118.77966"
       fy="121.49152"
       r="25.491526"
       gradientUnits="userSpaceOnUse"
       gradientTransform="matrix(0.02177942,-0.95743591,0.97872327,0.02221687,-235.0993,5.0684454)" />
    <linearGradient
       inkscape:collect="always"
       xlink:href="#linearGradient3647"
       id="linearGradient3653"
       x1="-397.81323"
       y1="149.18764"
       x2="-397.55933"
       y2="51.355946"
       gradientUnits="userSpaceOnUse" />
    <radialGradient
       inkscape:collect="always"
       xlink:href="#linearGradient3698"
       id="radialGradient3704"
       cx="-383.2746"
       cy="217.91029"
       fx="-383.2746"
       fy="217.91029"
       r="59.401995"
       gradientTransform="matrix(-1.2861568,-0.08596317,0.11453678,-1.7136762,-425.01982,469.50099)"
       gradientUnits="userSpaceOnUse" />
    <radialGradient
       inkscape:collect="always"
       xlink:href="#linearGradient3708"
       id="radialGradient3714"
       cx="-123.5"
       cy="-11.570732"
       fx="-123.5"
       fy="-11.570732"
       r="95.627118"
       gradientTransform="matrix(-0.00756512,0.55751399,-1.0314585,-0.01398286,113.23967,103.212)"
       gradientUnits="userSpaceOnUse" />
    <radialGradient
       inkscape:collect="always"
       xlink:href="#linearGradient3750"
       id="radialGradient3748"
       cx="-94.87291"
       cy="165.27281"
       fx="-94.87291"
       fy="165.27281"
       r="60.481357"
       gradientTransform="matrix(0.81293878,1.6998003,-2.1519091,1.0291615,564.39485,118.47915)"
       gradientUnits="userSpaceOnUse" />
    <linearGradient
       inkscape:collect="always"
       xlink:href="#linearGradient3776"
       id="linearGradient3774"
       x1="162.07127"
       y1="85.239708"
       x2="220.76114"
       y2="78.875748"
       gradientUnits="userSpaceOnUse"
       gradientTransform="translate(3.3917128,7.418629)" />
    <linearGradient
       inkscape:collect="always"
       xlink:href="#linearGradient3803"
       id="linearGradient3809"
       x1="-382.04123"
       y1="37.280548"
       x2="-381.39438"
       y2="165.56691"
       gradientUnits="userSpaceOnUse" />
    <radialGradient
       cx="284.4671"
       cy="-158.17821"
       r="110.2972"
       fx="284.4671"
       fy="-158.17821"
       id="radialGradient3290"
       xlink:href="#linearGradient3284"
       gradientUnits="userSpaceOnUse"
       gradientTransform="matrix(-0.11716471,0.12935911,-0.00902714,-0.00684136,409.28555,168.60117)" />
    <linearGradient
       id="linearGradient3284">
      <stop
         id="stop3286"
         style="stop-color:#000000;stop-opacity:1"
         offset="0" />
      <stop
         id="stop3292"
         style="stop-color:#000000;stop-opacity:0.49803922"
         offset="0.84845906" />
      <stop
         id="stop3288"
         style="stop-color:#000000;stop-opacity:0"
         offset="1" />
    </linearGradient>
    <radialGradient
       cx="418.45551"
       cy="181.18982"
       r="63.068935"
       fx="418.45551"
       fy="181.18982"
       id="radialGradient3248"
       xlink:href="#linearGradient3242"
       gradientUnits="userSpaceOnUse"
       gradientTransform="matrix(-0.00614672,-0.00559891,0.15816585,-0.17364098,362.17853,225.8923)" />
    <linearGradient
       id="linearGradient3242">
      <stop
         id="stop3244"
         style="stop-color:#282828;stop-opacity:1"
         offset="0" />
      <stop
         id="stop3252"
         style="stop-color:#808080;stop-opacity:1"
         offset="0.39253417" />
      <stop
         id="stop3246"
         style="stop-color:#d9d9d9;stop-opacity:1"
         offset="1" />
    </linearGradient>
    <radialGradient
       cx="283.50717"
       cy="382.14804"
       r="17.67668"
       fx="283.50717"
       fy="382.14804"
       id="radialGradient3238"
       xlink:href="#linearGradient3202"
       gradientUnits="userSpaceOnUse"
       gradientTransform="matrix(0.03887859,0.03094289,-0.04742816,0.05959176,388.10063,169.08797)" />
    <linearGradient
       id="linearGradient3202">
      <stop
         id="stop3204"
         style="stop-color:#2b2b2b;stop-opacity:1"
         offset="0" />
      <stop
         id="stop3250"
         style="stop-color:#828383;stop-opacity:1"
         offset="0.5" />
      <stop
         id="stop3206"
         style="stop-color:#dadbdb;stop-opacity:1"
         offset="1" />
    </linearGradient>
    <radialGradient
       cx="289.44067"
       cy="390.45248"
       r="17.67668"
       fx="289.44067"
       fy="390.45248"
       id="radialGradient3210"
       xlink:href="#linearGradient3202"
       gradientUnits="userSpaceOnUse"
       gradientTransform="matrix(0.03887859,0.03094289,-0.04742816,0.05959176,378.58904,179.85775)" />
    <linearGradient
       id="linearGradient4829">
      <stop
         id="stop4831"
         style="stop-color:#2b2b2b;stop-opacity:1"
         offset="0" />
      <stop
         id="stop4833"
         style="stop-color:#828383;stop-opacity:1"
         offset="0.5" />
      <stop
         id="stop4835"
         style="stop-color:#dadbdb;stop-opacity:1"
         offset="1" />
    </linearGradient>
    <radialGradient
       cx="425.51019"
       cy="356.62274"
       r="143.34167"
       fx="425.51019"
       fy="356.62274"
       id="radialGradient3300"
       xlink:href="#linearGradient3294"
       gradientUnits="userSpaceOnUse"
       gradientTransform="matrix(-0.00945155,-0.00758178,0.10073727,-0.12558049,347.35999,248.79337)" />
    <linearGradient
       id="linearGradient3294">
      <stop
         id="stop3296"
         style="stop-color:#6376e6;stop-opacity:1"
         offset="0" />
      <stop
         id="stop3302"
         style="stop-color:#222989;stop-opacity:1"
         offset="0.50094414" />
      <stop
         id="stop3298"
         style="stop-color:#00003d;stop-opacity:1"
         offset="1" />
    </linearGradient>
    <radialGradient
       inkscape:collect="always"
       xlink:href="#linearGradient3284"
       id="radialGradient5233"
       gradientUnits="userSpaceOnUse"
       gradientTransform="matrix(-0.11716471,0.12935911,-0.00902714,-0.00684136,409.28555,168.60117)"
       cx="284.4671"
       cy="-158.17821"
       fx="284.4671"
       fy="-158.17821"
       r="110.2972" />
    <radialGradient
       inkscape:collect="always"
       xlink:href="#linearGradient3294"
       id="radialGradient5235"
       gradientUnits="userSpaceOnUse"
       gradientTransform="matrix(-0.00945155,-0.00758178,0.10073727,-0.12558049,347.35999,248.79337)"
       cx="425.51019"
       cy="356.62274"
       fx="425.51019"
       fy="356.62274"
       r="143.34167" />
    <radialGradient
       inkscape:collect="always"
       xlink:href="#linearGradient3202"
       id="radialGradient5237"
       gradientUnits="userSpaceOnUse"
       gradientTransform="matrix(0.03887859,0.03094289,-0.04742816,0.05959176,378.58904,179.85775)"
       cx="289.44067"
       cy="390.45248"
       fx="289.44067"
       fy="390.45248"
       r="17.67668" />
    <radialGradient
       inkscape:collect="always"
       xlink:href="#linearGradient3202"
       id="radialGradient5239"
       gradientUnits="userSpaceOnUse"
       gradientTransform="matrix(0.03887859,0.03094289,-0.04742816,0.05959176,388.10063,169.08797)"
       cx="283.50717"
       cy="382.14804"
       fx="283.50717"
       fy="382.14804"
       r="17.67668" />
    <radialGradient
       inkscape:collect="always"
       xlink:href="#linearGradient3242"
       id="radialGradient5241"
       gradientUnits="userSpaceOnUse"
       gradientTransform="matrix(-0.00614672,-0.00559891,0.15816585,-0.17364098,362.17853,225.8923)"
       cx="418.45551"
       cy="181.18982"
       fx="418.45551"
       fy="181.18982"
       r="63.068935" />
  </defs>
  <g
     inkscape:groupmode="layer"
     id="layer2"
     inkscape:label="logo">
    <path
       sodipodi:type="arc"
       style="fill:url(#radialGradient3594);fill-opacity:1;fill-rule:nonzero;stroke:none;display:inline"
       id="path2814"
       sodipodi:cx="-118.23729"
       sodipodi:cy="122.57627"
       sodipodi:rx="25.491526"
       sodipodi:ry="25.491526"
       d="m -92.745764,122.57627 a 25.491526,25.491526 0 1 1 -50.983056,0 25.491526,25.491526 0 1 1 50.983056,0 z"
       transform="matrix(4.680851,0,0,4.7978723,685.10478,-449.69946)" />
    <path
       style="fill:url(#linearGradient3774);fill-opacity:1;fill-rule:nonzero;stroke:none;display:inline"
       d="m 232.17258,88.120422 c 0,15.673918 -19.79135,34.931518 -45.84395,34.931518 -26.0526,0 -59.92241,-16.08123 -59.92241,-31.755152 0,-15.673924 21.11981,-28.38015 47.17241,-28.38015 19.90254,0 46.36122,18.293224 56.45971,20.3521 0.79179,1.710571 1.36862,2.925087 2.13424,4.851684 z"
       id="path3655"
       sodipodi:nodetypes="cssscc"
       inkscape:connector-curvature="0" />
    <path
       style="fill:#332e91;fill-opacity:1;fill-rule:nonzero;stroke:none;display:inline"
       d="m 38.822019,65.971523 c 12.38148,-9.610993 35.314514,-1.245318 51.289554,19.334679 15.975027,20.579998 17.694937,51.065068 5.31349,60.676058 -12.38147,9.61099 -34.17571,-5.29155 -50.15074,-25.87156 -12.20392,-15.72181 -4.05062,-41.19089 -8.61646,-50.430553 0.61589,-1.122052 1.381696,-2.456607 2.164156,-3.708624 z"
       id="path3655-4-8"
       sodipodi:nodetypes="cssscc"
       inkscape:connector-curvature="0" />
    <path
       style="fill:url(#radialGradient3714);fill-opacity:1;fill-rule:nonzero;stroke:none;display:inline"
       d="m 230.04347,83.261765 c -7.0081,-0.03265 -61.07025,0.289575 -107.66568,0.0654 -17.371,5.108098 -31.704627,13.258827 -39.181777,29.154945 -5.33639,-4.54237 -40.74576,-42.215609 -44.40678,-46.440684 31.38983,-41.648805 74.528017,-45.559321 82.915257,-45.559321 8.38724,0 70.64407,-8.631855 108.33898,62.77966 z"
       id="path3596"
       sodipodi:nodetypes="ccccsc"
       inkscape:connector-curvature="0" />
    <path
       style="fill:#6e69d3;fill-opacity:1;fill-rule:nonzero;stroke:none;display:inline"
       d="m 117.12454,243.96815 c -12.49835,-9.45851 -14.5752,-36.93927 1.14635,-57.71356 15.72155,-20.77428 41.03582,-34.94753 53.53417,-25.48904 12.49834,9.4585 7.44792,38.96701 -8.27364,59.74129 -12.01027,15.87024 -35.4911,16.88498 -43.22681,23.69505 -1.23894,-0.0455 -1.95523,-0.0605 -3.18007,-0.23374 z"
       id="path3655-4"
       sodipodi:nodetypes="cssscc"
       inkscape:connector-curvature="0" />
    <path
       style="fill:url(#radialGradient3748);fill-opacity:1;fill-rule:nonzero;stroke:none;display:inline"
       d="m 120.3032,244.20103 c 3.58354,-6.02268 28.85859,-52.8991 52.69131,-92.9389 4.41104,-17.56095 5.34663,-33.64185 -4.5584,-48.14993 6.62173,-2.29412 58.23852,-13.976353 63.73684,-14.987686 19.9656,48.180076 1.44992,87.338276 -2.80522,94.565966 -4.25515,7.22768 -28.40179,65.25666 -109.06453,61.51055 z"
       id="path3596-1"
       sodipodi:nodetypes="ccccsc"
       inkscape:connector-curvature="0" />
    <path
       style="fill:url(#radialGradient3704);fill-opacity:1;fill-rule:nonzero;stroke:none;display:inline"
       d="m 36.696853,69.642524 c 3.46858,6.089612 30.72312,52.780196 53.77852,93.272576 13.094367,12.50527 27.684997,19.48512 45.191737,18.03328 -1.2738,6.89113 -16.62898,57.75037 -18.4638,63.03126 -51.756237,-6.42158 -76.669777,-41.85476 -80.854757,-49.1233 -4.18497,-7.26855 -42.7297502,-56.91452 0.3483,-125.213816 z"
       id="path3596-1-7"
       sodipodi:nodetypes="ccccsc"
       inkscape:connector-curvature="0" />
    <path
       style="fill:url(#linearGradient3653);fill-opacity:1;stroke:url(#linearGradient3809);stroke-width:10.07013607;stroke-miterlimit:4;stroke-opacity:1;display:inline"
       d="m -338.44068,101.42373 c 0,32.65032 -26.46832,59.11864 -59.11865,59.11864 -32.65032,0 -59.11864,-26.46832 -59.11864,-59.11864 0,-32.650327 26.46832,-59.118646 59.11864,-59.118646 32.65033,0 59.11865,26.468319 59.11865,59.118646 z"
       id="path3645"
       transform="matrix(0.77294737,0,0,0.77619098,435.90647,53.275706)"
       inkscape:connector-curvature="0" />
    <path
       style="fill:#ffffff;fill-opacity:1;fill-rule:nonzero;stroke:none;display:inline"
       d="m 163.54619,108.89582 c 18.52979,17.09836 16.03302,29.55794 10.0625,44 -3.10892,-22.25001 -2.34478,-32.42697 -10.0625,-44 z"
       id="rect3782"
       sodipodi:nodetypes="ccc"
       inkscape:connector-curvature="0" />
    <path
       style="fill:#ffffff;fill-opacity:1;fill-rule:nonzero;stroke:none;display:inline"
       d="m 101.42092,173.63924 c -22.645593,-14.47335 -29.809884,-45.71983 -8.813354,-62.99032 -10.847561,19.77514 -6.225429,32.39863 8.813354,62.99032 z"
       id="rect3782-4"
       sodipodi:nodetypes="ccc"
       inkscape:connector-curvature="0" />
    <path
       inkscape:connector-curvature="0"
       d="m 104.68114,161.22095 c 0,0 3.89267,1.13029 9.07429,1.77644 2.09839,0.26169 10.08249,1.17628 16.20403,1.15229 0,0 7.45549,0.007 11.57088,-0.57615 4.30609,-0.6117 6.74567,-1.39234 8.10338,-2.95023 0.0354,-0.37146 0.65533,-1.58227 -1.01849,-2.74991 -4.27927,-2.98524 -9.81142,-3.80237 -20.55696,-6.35427 -11.88249,-2.98748 -15.43356,-5.84823 -17.20759,-7.91857 -1.6819,-2.07493 0.31571,-6.38416 9.89047,-8.49813 4.84779,-1.17969 22.90313,-1.39645 22.90313,-1.39645 -5.17998,-4.1126 -14.90479,-11.47552 -16.89259,-13.04134 -1.74338,-1.37329 -4.5528,-3.48074 -4.85478,-5.36402 -0.4074,-1.83328 2.47832,-2.71598 4.00606,-2.81783 4.92268,-0.33948 11.64469,0.23766 17.61984,1.42588 3.00341,0.59727 3.53074,0.50924 3.53074,0.50924 4.27764,0.20371 7.60472,-2.03697 7.43497,-6.75597 -0.0341,-4.78687 -4.81999,-8.62527 -10.11699,-8.79294 -4.9882,-0.15792 -17.28034,0.71295 -17.28034,0.71295 14.32672,2.95362 16.66883,3.70736 17.41614,5.43193 0.44135,1.01848 -0.73724,2.03114 -4.68504,1.83328 -4.29792,-0.2154 -13.10453,-1.25613 -13.10453,-1.25613 -8.38555,-1.2901 -14.22489,-2.51228 -16.77109,0.8148 -1.66349,2.17361 0.23762,4.82084 0.98452,6.38251 3.32707,5.80539 9.08023,9.78832 12.7311,12.59529 1.37366,1.05616 5.56773,3.39496 5.56773,3.39496 -13.03663,-3.5647 -23.42522,-1.56168 -30.01143,1.90117 -7.570754,4.48136 -6.275717,12.04366 5.73748,19.11364 7.09545,4.17579 10.62832,6.18182 22.2458,7.60811 6.79058,1.08276 7.80244,1.52579 7.75082,2.09101 -0.0727,0.79578 -8.03733,1.09733 -10.22655,1.24832 -5.56938,0.38409 -19.97298,0.48012 -20.045,0.48012 z"
       id="path4839"
       style="fill:#ffffff;fill-opacity:1;fill-rule:evenodd;stroke:#000000;stroke-width:0;stroke-linecap:butt;stroke-linejoin:miter;stroke-miterlimit:4;stroke-opacity:1;stroke-dasharray:none;display:inline" />
  </g>
  <g
     inkscape:groupmode="layer"
     id="layer1"
     inkscape:label="pen"
     style="display:inline"
     sodipodi:insensitive="true">
    <g
       style="display:inline"
       id="g5224"
       transform="matrix(5.158461,0,0,5.158461,-1776.5812,-886.32607)">
      <g
         id="g4820"
         transform="matrix(0.09375,0,0,0.09375,346.06218,175.21904)">
        <path
           style="fill:#4d4d4d"
           id="path4824"
           d="m 279.476,404.243 c -0.007,-0.004 -7.446,-4.112 -16.804,-11.401 l 0,0 c -8.082,-6.285 -13.538,-12.214 -13.544,-12.22 l 0,0 -0.122,-0.133 3.646,-4.669 0.157,-0.205 0.169,0.197 c 0.017,0.01 5.4,6.295 13.725,12.78 l 0,0 c 7.913,6.157 16.594,10.586 16.612,10.595 l 0,0 0.229,0.117 -3.911,5.026 -0.157,-0.087 0,0 z m -16.542,-11.737 c 8.545,6.656 15.469,10.644 16.589,11.275 l 0,0 3.372,-4.334 c -1.423,-0.743 -9.253,-4.919 -16.453,-10.521 l 0,0 c -7.504,-5.845 -12.637,-11.533 -13.614,-12.645 l 0,0 -3.264,4.184 c 0.849,0.905 6.01,6.32 13.37,12.041 l 0,0 z"
           inkscape:connector-curvature="0" />
      </g>
      <rect
         style="fill:url(#radialGradient5233);fill-opacity:1;stroke:#4a4a4a;stroke-width:0;stroke-miterlimit:4;stroke-opacity:1;stroke-dasharray:none"
         id="rect3282"
         y="185.72401"
         x="358.23929"
         height="36.551983"
         width="35.521378" />
      <path
         style="fill:url(#radialGradient5235);fill-opacity:1;fill-rule:evenodd;stroke:#000030;stroke-width:0.00908701;stroke-linecap:butt;stroke-linejoin:miter;stroke-miterlimit:4;stroke-opacity:1;stroke-dasharray:none"
         id="path3254"
         d="m 372.25774,212.94678 c 0,0 4.99001,-5.35345 9.87433,-11.24846 l 0.21335,0.0659 c 0,0 10.12955,-11.10121 7.65182,-11.99999 0,0 -1.23887,-2.45345 -10.95547,9.35222 l -0.0187,0.17716 c -4.48311,5.17018 -9.46435,11.47403 -9.46435,11.47403 -3.84757,5.53089 -6.13207,9.61894 -5.94313,10.014 0.25683,0.53701 8.65705,-7.78103 8.64214,-7.83483 z"
         inkscape:connector-curvature="0" />
      <path
         style="fill:url(#radialGradient5237);fill-opacity:1;fill-rule:evenodd;stroke:#606060;stroke-width:0.00908701;stroke-linecap:butt;stroke-linejoin:miter;stroke-miterlimit:4;stroke-opacity:1;stroke-dasharray:none"
         id="path2430"
         d="m 369.39556,210.87067 c 1.09072,1.11649 2.8685,2.25015 2.8685,2.25015 l 0.35213,-0.44659 c -1.20639,-0.63048 -2.88569,-2.23297 -2.88569,-2.23297 l -0.33494,0.42941 z"
         inkscape:connector-curvature="0" />
      <path
         style="fill:url(#radialGradient5239);fill-opacity:1;fill-rule:evenodd;stroke:#606060;stroke-width:0.00908701;stroke-linecap:butt;stroke-linejoin:miter;stroke-miterlimit:4;stroke-opacity:1;stroke-dasharray:none"
         id="path3236"
         d="m 378.82985,199.25923 c 1.92379,1.22814 3.43534,2.71392 3.43534,2.71392 l 0.25765,-0.30059 c -1.02603,-1.08566 -3.43933,-2.72815 -3.43933,-2.72815 l -0.25366,0.31482 z"
         inkscape:connector-curvature="0" />
      <path
         style="fill:url(#radialGradient5241);fill-opacity:1;fill-rule:evenodd;stroke:#4a4a4a;stroke-width:0.01090441;stroke-linecap:butt;stroke-linejoin:miter;stroke-miterlimit:4;stroke-opacity:1;stroke-dasharray:none"
         id="path3240"
         d="m 389.39781,189.45135 c 1.01342,0.0859 1.18519,0.97907 1.18519,0.97907 -4.62053,4.80947 -11.38814,11.80038 -11.38814,11.80038 l -0.34354,-0.292 c 5.96031,-7.1455 10.54649,-12.48745 10.54649,-12.48745"
         inkscape:connector-curvature="0" />
    </g>
  </g>
</svg>
